<?xml version="1.0" encoding="utf-8"?>
<!-- Generator: Adobe Illustrator 24.0.1, SVG Export Plug-In . SVG Version: 6.00 Build 0)  -->
<svg version="1.1" id="Camada_1" xmlns="http://www.w3.org/2000/svg" xmlns:xlink="http://www.w3.org/1999/xlink" x="0px" y="0px"
	 viewBox="0 0 262 330" style="enable-background:new 0 0 262 330;" xml:space="preserve">
<style type="text/css">
	.st0{display:none;}
	.st1{display:inline;fill:#FFFFFF;}
	.st2{display:inline;opacity:0.33;fill:none;stroke:#000000;stroke-miterlimit:10;enable-background:new    ;}
	.st3{clip-path:url(#SVGID_2_);}
	.st4{fill:#EF6100;}
	.st5{fill:#012442;}
	.st6{fill:#FFBB71;}
	.st7{fill:#83D9FD;}
	.st8{fill:#FFFFFF;}
	.st9{fill:#EF5B70;}
	.st10{fill:#F7E9DE;}
	.st11{fill:#C67552;}
	.st12{fill:#FFBF1F;}
</style>
<g id="Camada_4" class="st0">
	<path class="st1" d="M285.3,0.3H-25v207.8h24.8c0,0.2,0,0.4,0,0.6c0,72.4,58.7,131,131.1,131c72.4,0,131-58.7,131-131
		c0-0.2,0-0.4,0-0.6h23.3L285.3,0.3L285.3,0.3z"/>
</g>
<g id="Camada_3" class="st0">
	<circle class="st2" cx="130.9" cy="207.5" r="131.1"/>
	<path class="st1" d="M285.1,1.1H-25.2v207.8h24.9c0,0.2,0,0.4,0,0.6c0,72.4,58.7,131.1,131.1,131.1c72.4,0,131-58.7,131-131.1
		c0-0.2,0-0.4,0-0.6h23.3L285.1,1.1L285.1,1.1z"/>
</g>
<g>
	<defs>
		<path id="SVGID_1_" d="M285.1-19.4H-25.1v217.8h23.8c0,0.2,0,0.4,0,0.6c0,72.4,59.7,131,132.1,131c72.4,0,132-58.7,132-131.1
			c0-0.2,0-0.2,0-0.4l22.3-0.2V-9.4L285.1-19.4z"/>
	</defs>
	<clipPath id="SVGID_2_">
		<use xlink:href="#SVGID_1_"  style="overflow:visible;"/>
	</clipPath>
	<g class="st3">
		<g>
			<circle class="st4" cx="131" cy="199" r="131.4"/>
		</g>
		<g>
			<g>
				<path class="st5" d="M224.5,362.9c-11,0-20.8-7.5-23.4-18.7c-10.8-47.5-30.1-65.5-30.3-65.7c0.2,0.2,0.4,0.3,0.4,0.3l30.9-36.8
					c3.2,2.7,31.4,27.9,45.9,91.5c2.9,12.9-5.1,25.8-18.1,28.7C228.1,362.7,226.3,362.9,224.5,362.9z"/>
			</g>
		</g>
		<g>
			<g>
				<path class="st6" d="M224.5,353.9c-6.8,0-13-4.7-14.6-11.7c-6.1-26.7-14.8-44.4-21-54.6c-6.7-10.9-12-15.7-12.1-15.8l0.1,0.1
					l19.3-23c2.9,2.5,29.1,25.8,42.9,86.6c1.8,8.1-3.2,16.1-11.3,18C226.8,353.8,225.6,353.9,224.5,353.9z"/>
			</g>
		</g>
		<g>
			<g>
				<path class="st5" d="M41,362.9c-1.8,0-3.6-0.2-5.4-0.6c-12.9-2.9-21-15.8-18.1-28.7C32,270,60.3,244.8,63.5,242.1l30.9,36.8
					c0,0,0.1-0.1,0.4-0.3c-0.2,0.2-19.5,18.2-30.3,65.7C61.8,355.4,51.9,362.9,41,362.9z"/>
			</g>
		</g>
		<g>
			<g>
				<path class="st6" d="M41,353.9c-1.1,0-2.2-0.1-3.3-0.4c-8.1-1.8-13.1-9.9-11.3-18c13.8-60.7,40-84.1,42.9-86.6l19.3,23l0.1-0.1
					c-0.1,0-5.4,4.8-12.1,15.8c-6.2,10.2-14.9,27.9-21,54.6C54,349.2,47.8,353.9,41,353.9z"/>
			</g>
		</g>
		<g>
			<g>
				<path class="st6" d="M163.7,247.8l-0.9-5.4h-61.8l-0.9,5.4c-0.2,1.4-0.4,2.9-0.4,4.4c0,16.1,14.4,29.2,32.1,29.2
					c17.7,0,32.1-13.1,32.1-29.2C164.1,250.7,164,249.3,163.7,247.8z"/>
			</g>
		</g>
		<g>
			<path class="st7" d="M171,253c-4.3,2.6-8.8,4.8-13.4,6.6c0,0.3,0,0.6,0,0.9c0,12.5-11.5,22.7-25.7,22.7c-13.1,0-23.9-8.7-25.5-20
				c-5.5-2.3-10.5-5.8-14.6-10.9c-31.6,31.6-30,117.2-30,117.2l144.6-0.8C206.6,368.8,207.9,290.5,171,253z"/>
		</g>
		<g>
			<g>
				<g>
					<g>
						<path class="st7" d="M179.7,297.2l44.6-22.6c-0.2-0.7-20.8-43.3-52.1-37.9l-6.4,1c-9.9,4-8.9,17.8-4.9,27.8L179.7,297.2z"/>
					</g>
				</g>
			</g>
		</g>
		<g>
			<g>
				<g>
					<path class="st5" d="M198.3,293.3c-1.5,0-3-0.9-3.6-2.3c-0.9-2-0.1-4.4,2-5.3l24.1-11.1c-5.8-10.6-25.4-41.5-50.9-33
						c-2.1,0.7-4.4-0.4-5.1-2.5c-0.7-2.1,0.4-4.4,2.5-5.1c15.5-5.2,31.3,0.4,45.7,16c11,11.9,16.9,25.1,17,25.2l1.3,3.5L200,293
						C199.4,293.2,198.9,293.3,198.3,293.3z"/>
				</g>
			</g>
		</g>
		<g>
			<g>
				<g>
					<g>
						<path class="st7" d="M85.8,297.2l-44.6-22.6c0.2-0.7,20.8-43.3,52.1-37.9l6.4,1c9.9,4,8.9,17.8,4.8,27.8L85.8,297.2z"/>
					</g>
				</g>
			</g>
		</g>
		<g>
			<g>
				<g>
					<path class="st5" d="M70.9,294.2c-0.5,0-1.1-0.1-1.6-0.3l-35-15.2l1.3-3.5c0-0.1,6-13.3,17-25.2c14.4-15.6,30.2-21.1,45.7-16
						c2.1,0.7,3.2,3,2.5,5.1c-0.7,2.1-3,3.2-5.1,2.5c-25.4-8.4-45,22.3-50.9,32.9l27.6,12c2,0.9,3,3.2,2.1,5.3
						C73.9,293.3,72.4,294.2,70.9,294.2z"/>
				</g>
			</g>
		</g>
		<g>
			<g>
				<g>
					<path class="st5" d="M157.3,246.1c0.2,1.2,0.3,2.5,0.3,3.7c0,14.2-11.5,25.7-25.7,25.7c-14.2,0-25.7-11.5-25.7-25.7
						c0-1.3,0.1-2.5,0.3-3.7H157.3 M164.3,238.1h-6.9h-50.8h-6.9l-1,6.8c-0.2,1.6-0.4,3.3-0.4,4.9c0,18.6,15.1,33.7,33.7,33.7
						c18.6,0,33.7-15.1,33.7-33.7c0-1.6-0.1-3.3-0.4-4.9L164.3,238.1L164.3,238.1z"/>
				</g>
			</g>
		</g>
		<g>
			<g>
				<path class="st5" d="M203.8,364c-2.2,0-3.9-1.7-4-3.9c-1.4-50.1-13.1-86.3-13.2-86.6c-0.7-2.1,0.5-4.4,2.6-5
					c2.1-0.7,4.4,0.5,5,2.5c0.5,1.5,12.2,37.6,13.6,88.9c0.1,2.2-1.7,4-3.9,4.1C203.9,364,203.9,364,203.8,364z"/>
			</g>
		</g>
		<g>
			<g>
				<path class="st5" d="M63.2,364c0,0-0.1,0-0.1,0c-2.2-0.1-3.9-1.9-3.9-4.1c1.5-51.3,13.1-87.4,13.6-88.9c0.7-2.1,2.9-3.2,5-2.5
					c2.1,0.7,3.2,3,2.6,5c-0.1,0.4-11.8,36.5-13.2,86.6C67.1,362.3,65.3,364,63.2,364z"/>
			</g>
		</g>
		<g>
			<g>
				<g>
					<path class="st6" d="M203,187.9c0.1,37.8-29.8,65.2-71.4,65.4l0,0c-41.6,0.1-71.7-27.1-71.9-64.9l-0.2-39.6
						c-0.1-13.9,3.8-23.7,11.1-34.2c17.8-25.7,64.6-23.7,69.1-23.3c18.8,1.2,41.5,6.9,53.3,23.3c6.9,9.6,11.2,19.8,11.2,37.7
						L203,187.9z"/>
				</g>
			</g>
		</g>
		<g>
			<g id="boca_12_">
				<g>
					<g>
						<g>
							<g>
								<path class="st5" d="M131.5,212.1c12.4,0,22.7-8.6,25.6-20.1c0.8-3.2-1.8-6.4-5.1-6.4l-41.1,0.1c-3.4,0-5.9,3.1-5.1,6.4
									C108.7,203.6,119.1,212.1,131.5,212.1z"/>
							</g>
						</g>
					</g>
					<g>
						<g>
							<path class="st8" d="M156.6,193.5c0.5-1.6,0.8-3.2,1-5.1c0.2-2.1-1.5-3.9-3.6-3.9l-45.3,0.2c-2.1,0-3.8,1.8-3.5,3.9
								c0.2,1.9,0.6,3.6,1.1,5.1L156.6,193.5z"/>
						</g>
					</g>
				</g>
				<g>
					<g>
						<path class="st9" d="M132.6,212.1c-12.1,0-17.2-6-17.2-6c4-2.9,10.2-4.8,17.2-4.8c6.1,0,12.7,1.4,16.7,3.6
							C149.2,204.9,144.7,212.1,132.6,212.1z"/>
					</g>
				</g>
			</g>
		</g>
		<g>
			<g>
				<g>
					<path class="st5" d="M132.1,91.8c25.9,0,51.7,9.2,63.7,29.3c8.6,14.5,7.1,43.7,7.1,43.7c0.3,0,0.6,0,0.6,0c0,0,0,0,0.1,0
						c8.6,0,15.6,7,15.6,15.6c0,8.6-6.9,15.7-15.6,15.7c-0.1,0-0.4,0-1,0c-3.9,33.5-32.4,57.1-70.9,57.3c-0.1,0-0.2,0-0.3,0
						c-38.8,0-67.6-23.9-71.2-57.9c-1.3,0-2.1,0-2.2,0c0,0,0,0-0.1,0c-8.4,0-15.3-6.8-15.3-15.3c0-8.4,6.8-15.3,15.2-15.4
						c0.1,0,0.8,0,1.8,0l-0.1-6.7c0-4.2-0.2-27,6.5-37.9C77.4,102,104.8,91.8,132.1,91.8 M132.1,83.8L132.1,83.8
						c-32,0-60.6,12.6-72.9,32.2c-5.2,8.3-7.8,22.3-7.8,41.7v0c-3.8,1.1-7.3,3.1-10.2,6c-4.4,4.4-6.8,10.3-6.8,16.5
						c0,11.2,8,20.6,18.6,22.8c6.9,34.7,38.1,58.4,78.1,58.4h0.4c20.7-0.1,39.2-6.3,53.5-17.9c12.6-10.2,21.1-24.3,24.4-40.1
						c4.1-1.1,7.8-3.2,10.8-6.2c4.4-4.5,6.9-10.4,6.9-16.7c0-10.4-6.8-19.2-16.2-22.3c-0.1-10.4-1.3-29.2-8.3-41
						C190.2,96.3,163.8,83.8,132.1,83.8L132.1,83.8z"/>
				</g>
			</g>
		</g>
		<g>
			<g>
				<g>
					<path class="st5" d="M154.1,184.5c2.1,0,3.8,1.8,3.6,3.9c-0.1,1.2-1.9,8.9-8.9,17.2c-1.4,1.8-6.2,6.5-16.1,6.6c0,0,0,0,0,0
						c-2,0-9.2-0.5-13.2-3.1c-5.8-3.7-10.9-8.7-13-15.4c0,0-1.1-3.2-1.1-5.1c0-2.1,1.4-3.9,3.5-3.9L154.1,184.5
						C154.1,184.5,154.1,184.5,154.1,184.5 M154.1,177.5L154.1,177.5L154.1,177.5l-45.4,0.2c-5.8,0-10.5,4.8-10.5,10.8
						c0,2.9,1.1,6.3,1.4,7.4c2.4,7.5,7.8,14,15.9,19.1c6.5,4.1,16.6,4.1,17,4.1h0h0.1c12.6,0,19.2-6.3,21.5-9.1
						c7.9-9.2,10.3-18.3,10.5-21c0.3-2.9-0.7-5.9-2.7-8.1C159.9,178.8,157.1,177.5,154.1,177.5L154.1,177.5z"/>
				</g>
			</g>
		</g>
		<g>
			<g>
				<g>
					<g>
						<path class="st10" d="M204.6,171.6c5.4,0,9.8,4.3,9.8,9.7s-4.3,9.8-9.7,9.8c-5.4,0-9.8-4.3-9.8-9.7
							C194.9,176,199.2,171.6,204.6,171.6"/>
					</g>
				</g>
			</g>
		</g>
		<g>
			<g>
				<g>
					<path class="st6" d="M88.7,180.1c0,7.8,4.7,14.2-2.9,15.2c-0.7,0.1-27.3,0.2-28,0.2c-8.4,0-15.3-6.8-15.4-15.3
						c0-8.4,6.8-15.3,15.2-15.4c0.7,0,22.2,0,22.9,0.1C88.1,165.9,88.7,172.3,88.7,180.1z"/>
				</g>
			</g>
		</g>
		<g>
			<g>
				<g>
					<path class="st6" d="M171.9,180.6c0,7.9-4.6,14.5,3.1,15.5c0.6,0.1,27.9,0,28.6,0c8.6,0,15.6-7.1,15.6-15.7
						c0-8.6-7.1-15.6-15.7-15.6c-0.7,0-22.6,0.1-23.3,0.2C172.4,166.1,171.9,172.7,171.9,180.6z"/>
				</g>
			</g>
		</g>
		<g>
			<g>
				<ellipse class="st11" cx="80.8" cy="187.8" rx="10.9" ry="7.6"/>
			</g>
		</g>
		<g>
			<g>
				<ellipse class="st11" cx="184.3" cy="187.8" rx="10.9" ry="7.6"/>
			</g>
		</g>
		<g>
			<g>
				<path class="st5" d="M99.1,142.6l-18.6,2.9c-2.6,0.4-5-1.4-5.4-3.9l0,0c-0.4-2.6,1.4-5,3.9-5.4l18.6-2.9c2.6-0.4,5,1.4,5.4,3.9
					l0,0C103.4,139.8,101.6,142.2,99.1,142.6z"/>
			</g>
		</g>
		<g>
			<g>
				<path class="st5" d="M167.2,142.6l18.6,2.9c2.6,0.4,5-1.4,5.4-3.9l0,0c0.4-2.6-1.4-5-3.9-5.4l-18.6-2.9c-2.6-0.4-5,1.4-5.4,3.9
					l0,0C162.8,139.8,164.6,142.2,167.2,142.6z"/>
			</g>
		</g>
		<g>
			<g>
				<path class="st12" d="M220.6,169.9c0.1,0.1,6.4-11.6,7-21.1c3.7,3.3,6.7,3.8,8.5,8.4c1.1-29.4-11.8-60-34-79.2
					S148.3,49.7,119.4,55c4.9-4.7,10.2-8.9,15.9-12.6c-12.9-2.1-26.3-0.7-38.4,4c-10.3,4-22.2,13.2-24.1,24.1
					c-27.6,11.7-46.1,42.1-43.7,72l10.5-8c-1,12.9-0.1,20.3,2.7,32.9c0.3-1.6,2.2-2.7,3.7-3.3c4.3-1.7,8.8-2.8,13.4-3.2
					c-4.8-45.4,15.7-54.4,36.7-49.6c0,0,3.4-27,21.9-15.7c10.7,6.6,15.7,46.1,48.5,50.7c-0.6-10.7,0.5-23.8,1.4-28.7
					c11.9,18.5,28.6,28,37.8,31.2L206,161C206,161,216.2,162.3,220.6,169.9z"/>
				<path class="st5" d="M220.6,173.9c-1.4,0-2.7-0.7-3.4-2c-3.4-5.8-11.7-7-11.8-7c-1.9-0.3-3.4-1.9-3.5-3.9l-0.2-9.4
					c-9.4-3.8-21.1-11.6-31-23.4c-0.4,5.5-0.6,12.1-0.3,17.8c0.1,1.2-0.4,2.3-1.3,3.2c-0.9,0.8-2.1,1.2-3.3,1
					c-24-3.3-34.2-23.4-41.5-38c-3-6-5.9-11.7-8.5-13.2c-3.5-2.1-6.4-2.7-8.5-1.6c-4.7,2.3-6.9,11.4-7.3,14.4
					c-0.1,1.1-0.8,2.1-1.7,2.8c-0.9,0.6-2.1,0.9-3.2,0.6c-6.8-1.6-16.4-2.2-23.2,3.9c-7.7,6.9-10.7,21.2-8.6,41.4
					c0.1,1.1-0.2,2.1-0.9,3c-0.7,0.8-1.7,1.3-2.7,1.4c-4.2,0.4-8.3,1.3-12.2,2.9c-0.8,0.3-1.2,0.6-1.4,0.8c-0.5,1.6-2.1,2.8-3.8,2.8
					c-1.9,0-3.5-1.3-3.9-3.1c-2.1-9.6-3.3-16.5-3.2-25.4l-3.7,2.8c-1.2,0.9-2.7,1.1-4.1,0.5c-1.3-0.6-2.2-1.9-2.4-3.3
					c-2.5-31,16.1-62.2,44.2-75.2c2.4-8.6,11.1-19.2,26.1-25c12.9-5,26.9-6.5,40.5-4.2c1.6,0.3,2.9,1.5,3.3,3.1
					c0.3,1.6-0.4,3.3-1.7,4.2c-1.8,1.2-3.6,2.4-5.4,3.8c25.9-1.1,52.8,8.1,72.7,25.3c23,19.9,36.6,51.5,35.4,82.4
					c-0.1,1.9-1.5,3.5-3.3,3.8c-1.9,0.3-3.7-0.7-4.4-2.4c-0.5-1.3-1.1-2-1.9-2.7c-0.7,2.6-1.6,5.4-2.8,8.4c-3.6,8.8-4.6,9.1-6.1,9.4
					C221.2,173.8,220.9,173.9,220.6,173.9z M46.3,168.3C46.3,168.3,46.3,168.3,46.3,168.3C46.3,168.3,46.3,168.3,46.3,168.3z
					 M209.9,157.8c2.7,0.8,6.5,2.2,9.8,5c1.7-3.9,3.7-9.5,3.9-14.2c0.1-1.5,1-2.9,2.5-3.5c1.4-0.6,3-0.3,4.2,0.7
					c0.6,0.5,1.2,1,1.7,1.4c-1.7-25.3-13.7-50-32.5-66.2c-21.6-18.7-52-27.1-79.4-22c-1.7,0.3-3.5-0.5-4.3-2.1s-0.5-3.5,0.8-4.7
					c2.4-2.3,5-4.5,7.6-6.6c-8.8-0.1-17.6,1.5-25.9,4.7c-9.6,3.7-20.1,12.1-21.6,21c-0.2,1.3-1.1,2.5-2.4,3
					C50.6,84.4,34,109,33,134.6l4.3-3.2c1.3-1,3-1.1,4.3-0.3c1.4,0.8,2.2,2.2,2.1,3.8c-0.8,10.3-0.3,16.9,1.3,25.4
					c3.3-1.3,6.7-2.3,10.2-2.9c-1.7-21.2,2.2-36.1,11.6-44.3c6.6-5.9,15.6-8,26.3-6.4c1.3-5.1,4.3-13.3,10.9-16.5
					c4.8-2.3,10.2-1.6,16.2,2c4.5,2.8,7.6,8.8,11.4,16.5c6.4,12.6,14.2,28.1,30.8,32.7c-0.1-9.6,0.8-19.9,1.6-24.5
					c0.3-1.6,1.5-2.9,3.2-3.2c1.6-0.3,3.3,0.4,4.1,1.8c13.5,21,32.2,28.4,35.8,29.6c1.6,0.6,2.6,2,2.7,3.7L209.9,157.8z"/>
			</g>
		</g>
		<g>
			<g>
				<path class="st5" d="M98.2,167.7c-0.9,0-1.8-0.3-2.6-0.9c-4.6-3.9-12.1-1.6-15.2-0.5c-2.1,0.8-4.4-0.3-5.2-2.3
					c-0.8-2.1,0.3-4.4,2.3-5.2c9.3-3.5,17.5-2.9,23.1,1.9c1.7,1.4,1.9,3.9,0.5,5.6C100.5,167.2,99.3,167.7,98.2,167.7z"/>
			</g>
		</g>
		<g>
			<g>
				<path class="st5" d="M185.1,168.1c-0.9,0-1.8-0.3-2.6-0.9c-4.6-3.9-12.1-1.6-15.2-0.5c-2.1,0.8-4.4-0.3-5.2-2.3
					c-0.8-2.1,0.3-4.4,2.3-5.2c9.3-3.5,17.5-2.9,23.1,1.9c1.7,1.4,1.9,3.9,0.5,5.6C187.4,167.6,186.2,168.1,185.1,168.1z"/>
			</g>
		</g>
		<g>
			<g>
				<path class="st5" d="M203.5,151.4c-0.4,0-0.7-0.1-1.1-0.2c-17.8-5.2-28.1-19.3-38.1-33c-1.3-1.8-2.6-3.6-3.9-5.3
					c-1.3-1.8-1-4.3,0.8-5.6c1.8-1.3,4.3-1,5.6,0.8c1.3,1.8,2.7,3.6,4,5.4c9.6,13.2,18.8,25.6,33.9,30.1c2.1,0.6,3.3,2.8,2.7,5
					C206.9,150.3,205.3,151.4,203.5,151.4z"/>
			</g>
		</g>
		<g>
			<g>
				<path class="st8" d="M217.1,127.8c-1.2,0-2.4-0.8-2.8-2c-2.6-7.3-6.3-14.3-11-20.6c-1-1.3-0.7-3.2,0.6-4.2
					c1.3-1,3.2-0.7,4.2,0.6c5,6.8,9,14.3,11.9,22.2c0.6,1.6-0.3,3.3-1.8,3.8C217.8,127.8,217.4,127.8,217.1,127.8z"/>
			</g>
		</g>
	</g>
</g>
</svg>
