<?xml version="1.0" encoding="UTF-8"?>
<svg width="55px" height="140px" viewBox="0 0 55 140" version="1.1" xmlns="http://www.w3.org/2000/svg" xmlns:xlink="http://www.w3.org/1999/xlink">
    <!-- Generator: Sketch 60.1 (88133) - https://sketch.com -->
    <title>Group 46</title>
    <desc>Created with Sketch.</desc>
    <defs>
        <polygon id="path-1" points="6.95875834e-05 0.305838124 29.5857512 0.305838124 29.5857512 27.8709677 6.95875834e-05 27.8709677"></polygon>
        <polygon id="path-3" points="0.348730651 0.833555719 31.03282 0.833555719 31.03282 23.7690581 0.348730651 23.7690581"></polygon>
        <polygon id="path-5" points="0.525892268 0.836129032 18.7446071 0.836129032 18.7446071 26.0912903 0.525892268 26.0912903"></polygon>
    </defs>
    <g id="Welcome" stroke="none" stroke-width="1" fill="none" fill-rule="evenodd">
        <g id="Desktop-HD-Copy-19" transform="translate(-701.000000, -477.000000)">
            <g id="Group-7" transform="translate(511.000000, 475.000000)">
                <g id="Group-46" transform="translate(189.000000, 0.000000)">
                    <g id="Group-3" transform="translate(16.436921, 128.053731) rotate(-5.000000) translate(-16.436921, -128.053731) translate(1.436921, 114.053731)">
                        <mask id="mask-2" fill="white">
                            <use xlink:href="#path-1"></use>
                        </mask>
                        <g id="Clip-2"></g>
                        <path d="M7.311988,8.79468387 C6.460028,10.7944258 6.190988,12.7662968 6.511948,14.687071 C7.050028,17.9096516 9.038328,19.871071 9.406488,20.1242323 C9.545728,20.2194581 9.675528,20.3158452 9.805328,20.4145548 C9.857248,20.4528774 9.907988,20.4935226 9.961088,20.5295226 C14.335348,22.8637161 18.254128,20.9336516 20.797028,18.8770065 C18.185688,18.2696516 15.864628,18.4693935 13.875148,19.4820387 C12.761228,20.0452645 11.417208,19.9210065 10.434268,19.1568774 C9.450148,18.395071 9.011188,17.1373935 9.309728,15.9401032 C9.954008,13.3643613 8.680788,10.7293935 7.311988,8.79468387 M13.975448,27.8712 C11.712208,27.8712 9.314448,27.3312 6.852968,26.0154581 C6.445868,25.7994581 6.136708,25.5637161 5.911328,25.3941677 L5.757928,25.2792 C4.219208,24.227071 1.074508,20.8674581 0.210748,15.7078452 C-0.335592,12.4318452 -0.084252,7.32100645 4.229828,1.58074839 C4.757288,0.878167742 5.559688,0.424103226 6.442328,0.326554839 C7.326148,0.225522581 8.208788,0.497264516 8.881388,1.07094194 C9.170488,1.31597419 14.646868,6.0435871 15.698248,12.4155871 C18.866548,11.9696516 22.916308,12.3888774 27.813308,14.7834581 C28.649928,15.1933935 29.262348,15.9401032 29.488908,16.8308129 C29.716648,17.7203613 29.538468,18.6644903 28.999208,19.4135226 C26.507048,22.8776516 20.854848,27.8712 13.975448,27.8712" id="Fill-1" fill="#002043" mask="url(#mask-2)"></path>
                    </g>
                    <path d="M19.5758292,107.08606 C18.9291892,109.158963 18.8607492,111.147092 19.3728692,113.027221 C20.2342692,116.181286 22.4090092,117.940641 22.8019492,118.155479 C22.9459092,118.235608 23.0875092,118.320383 23.2291092,118.405157 C23.2833892,118.438834 23.3376692,118.474834 23.3931292,118.505028 C27.9809692,120.402576 31.6873492,118.099737 34.0084092,115.803866 C31.3451492,115.453157 29.0630292,115.87935 27.1809292,117.081286 C26.1330892,117.752512 24.7819892,117.755995 23.7258892,117.092899 C22.6709692,116.430963 22.1081092,115.22206 22.2839292,114.001544 C22.6638892,111.374705 21.1334292,108.877931 19.5758292,107.08606 M26.7455092,125.486705 C24.8870092,125.486705 22.9152292,125.119737 20.8525892,124.26735 C20.4277892,124.093157 20.0985692,123.889931 19.8566692,123.742447 L19.6950092,123.644899 C18.0524492,122.743737 14.5844292,119.706963 13.2073692,114.656512 C12.3306292,111.450189 12.0686692,106.33935 15.7809492,100.207737 C16.2364292,99.4575438 16.9892692,98.9268342 17.8577492,98.7445116 C18.7226892,98.5598664 19.6324692,98.742189 20.3593492,99.246189 C20.6720492,99.4633503 26.5980092,103.632383 28.2854092,109.871995 C31.3935292,109.118318 35.4633492,109.139221 40.5810092,111.047221 C41.4518492,111.372383 42.1362492,112.056383 42.4524892,112.920383 C42.7675492,113.784383 42.6849492,114.740124 42.2235692,115.537931 C39.9520692,119.472383 34.2821692,125.486705 26.7455092,125.486705" id="Fill-4" fill="#002043" transform="translate(27.648574, 112.080399) rotate(-5.000000) translate(-27.648574, -112.080399) "></path>
                    <path d="M27.7925291,89.1778521 C27.3783491,91.3076586 27.5293891,93.2911424 28.2468291,95.1050779 C29.4516091,98.1499811 31.8080691,99.6643037 32.2234291,99.837336 C32.3756491,99.9000457 32.5255091,99.9697231 32.6741891,100.040562 C32.7331891,100.067271 32.7910091,100.097465 32.8523691,100.121852 C37.6172091,101.514239 41.0498291,98.829336 43.1042091,96.3000457 C40.4185291,96.2210779 38.1942291,96.9039166 36.4596291,98.2997876 C35.4896691,99.0790134 34.1480091,99.2276586 33.0246491,98.6830134 C31.9012891,98.1360457 31.2086291,96.9944973 31.2499291,95.7646908 C31.3360691,93.1111424 29.5377491,90.7932069 27.7925291,89.1778521 M35.4224091,106.784175 C34.0134891,106.784175 32.5255091,106.578626 30.9596491,106.121078 C30.5136091,105.989852 30.1666891,105.82611 29.9118091,105.704175 L29.7359891,105.624046 C28.0061091,104.904046 24.2242091,102.255142 22.2972691,97.3835295 C21.0736091,94.2886908 20.2476091,89.2394005 23.2613291,82.745465 C23.6306691,81.9499811 24.3197891,81.3437876 25.1634891,81.0685618 C26.0060091,80.793336 26.9275891,80.8781102 27.7063891,81.3008199 C28.0415091,81.4808199 34.3922691,84.9925618 36.7581691,91.0150134 C39.7671691,89.9361747 43.8145691,89.5181102 49.1092291,90.8675295 C50.0119291,91.097465 50.7694891,91.7048199 51.1777691,92.5304973 C51.5872291,93.3550134 51.6108291,94.3142392 51.2403091,95.1561747 C49.2944891,99.5876586 43.7661891,106.783013 35.4224091,106.784175" id="Fill-6" fill="#002043" transform="translate(36.346141, 93.846835) rotate(-5.000000) translate(-36.346141, -93.846835) "></path>
                    <g id="Group-10" transform="translate(41.149153, 74.957294) rotate(-5.000000) translate(-41.149153, -74.957294) translate(25.149153, 62.957294)">
                        <mask id="mask-4" fill="white">
                            <use xlink:href="#path-3"></use>
                        </mask>
                        <g id="Clip-9"></g>
                        <path d="M6.806122,8.42725161 C7.029142,10.584929 7.751302,12.4429935 8.965522,13.9782194 C11.004562,16.5562839 13.705582,17.3436387 14.152802,17.3924129 C14.316822,17.4098323 14.479662,17.4342194 14.642502,17.4586065 C14.705042,17.4690581 14.768762,17.4818323 14.833662,17.4876387 C19.755442,17.4783484 22.268842,13.9468645 23.517282,10.944929 C20.942522,11.6440258 19.015582,12.9063484 17.763602,14.7260903 C17.060322,15.7468645 15.817782,16.2694452 14.583502,16.0592516 C13.350402,15.8525419 12.353302,14.9548645 12.034702,13.7633806 C11.346762,11.196929 8.947822,9.48286452 6.806122,8.42725161 L6.806122,8.42725161 Z M14.753422,23.7690581 C14.301482,23.7690581 13.920342,23.708671 13.641862,23.6657032 L13.454242,23.6378323 C11.587482,23.436929 7.190802,21.9644129 3.929282,17.8395097 C1.854842,15.2196387 -0.406038,10.6128 0.592242,3.54286452 C0.714962,2.67654194 1.197582,1.9008 1.926822,1.40028387 C2.654882,0.899767742 3.564662,0.719767742 4.429602,0.904412903 C4.803662,0.984541935 11.910802,2.55925161 15.929882,7.6608 C18.499922,5.77950968 22.257042,4.23963871 27.722802,4.03989677 C28.651462,4.02712258 29.554162,4.37434839 30.186642,5.04905806 C30.819122,5.72376774 31.120022,6.63654194 31.011462,7.54815484 C30.338862,13.1502194 26.080242,23.7504774 14.769942,23.7690581 L14.753422,23.7690581 Z" id="Fill-8" fill="#002043" mask="url(#mask-4)"></path>
                    </g>
                    <path d="M30.7933465,52.28469 C31.4706665,54.3552706 32.5739665,56.0310126 34.0938065,57.2863674 C36.6343465,59.384819 39.4297665,59.6031416 39.8899665,59.5555287 C40.0516265,59.5381093 40.2191865,59.5276577 40.3879265,59.5183674 C40.4528265,59.5172061 40.5165465,59.5148835 40.5814465,59.5067545 C45.4406865,58.4743674 47.1387065,54.4957868 47.7051065,51.3068835 C45.3203265,52.5215932 43.6954665,54.1590126 42.8541265,56.2028835 C42.3833065,57.3432706 41.2800065,58.1108835 40.0292065,58.1631416 C38.7902065,58.2119158 37.6113865,57.54069 37.0473465,56.4432706 C35.8154265,54.04869 33.1085065,52.8676577 30.7933465,52.28469 M39.8144465,65.8392706 C37.6420665,65.8392706 33.6029265,65.0832706 29.9885865,62.0999158 C27.4055665,59.9643029 24.2136665,55.9253351 23.6862065,48.8054642 C23.6213065,47.9333351 23.9292865,47.0751416 24.5346265,46.4352706 C25.1387865,45.796561 25.9848465,45.4353997 26.8698465,45.4353997 L26.8769265,45.4353997 C27.2592465,45.436561 34.5445665,45.5120448 39.5595665,49.672948 C41.6717665,47.3039158 45.0194265,45.0243029 50.3211665,43.7027545 C51.2250465,43.4786255 52.1832065,43.652819 52.9454865,44.1812061 C53.7077665,44.7119158 54.1962865,45.5410771 54.2824265,46.4550126 C54.8169665,52.0721739 52.9053665,63.3157868 41.8511265,65.6639158 C41.3991865,65.7579803 41.0156865,65.7777222 40.7336665,65.7939803 L40.5425065,65.8067545 C40.3324665,65.8264964 40.0870265,65.8392706 39.8144465,65.8392706" id="Fill-11" fill="#002043" transform="translate(39.020252, 54.723217) rotate(-5.000000) translate(-39.020252, -54.723217) "></path>
                    <path d="M25.6660178,34.0946922 C26.7870178,35.9713374 28.2348778,37.3683696 29.9954378,38.2672083 C32.9418978,39.769918 35.7302378,39.3750793 36.1562178,39.2345632 C36.3131578,39.1823051 36.4736378,39.1370148 36.6341178,39.0917245 C36.6966578,39.0743051 36.7591978,39.0580471 36.8205578,39.0383051 C41.3316978,36.9851438 42.1069578,32.7406277 41.9511978,29.5064341 C39.8944578,31.2042406 38.6707978,33.1517245 38.3038178,35.3279825 C38.0984978,36.5415309 37.1910778,37.5274664 35.9815778,37.84566 C34.7697178,38.1673374 33.4870578,37.7597245 32.6893778,36.8086277 C30.9571378,34.7380471 28.0531578,34.1666922 25.6660178,34.0946922 M34.6233978,45.6669503 C32.4899578,45.6669503 29.7924778,45.2395954 27.0607778,43.8460471 C24.0647578,42.3201116 20.0527578,39.0638535 17.9582578,32.2284987 C17.7010178,31.3912083 17.8107578,30.4877245 18.2591578,29.7328858 C18.7087378,28.9792083 19.4556778,28.4426922 20.3241578,28.2545632 C20.6958578,28.1709503 27.8230578,26.6810148 33.6404578,29.6620471 C35.1756378,26.8970148 37.9344778,23.9531438 42.8137778,21.5237245 C43.6468578,21.1079825 44.6215378,21.0719825 45.4829378,21.4261761 C46.3431578,21.7792083 47.0051378,22.4841116 47.2918778,23.3574019 C49.0606978,28.7248858 49.6931778,40.1066922 39.4259978,44.7727567 C39.0047378,44.9643696 38.6306778,45.0677245 38.3580978,45.1432083 L38.1751978,45.1954664 C37.4258978,45.44166 36.1727378,45.6669503 34.6233978,45.6669503" id="Fill-13" fill="#002043" transform="translate(33.071510, 33.425502) rotate(-5.000000) translate(-33.071510, -33.425502) "></path>
                    <g id="Group-17" transform="translate(24.550649, 14.942934) rotate(-5.000000) translate(-24.550649, -14.942934) translate(15.050649, 1.442934)">
                        <mask id="mask-6" fill="white">
                            <use xlink:href="#path-5"></use>
                        </mask>
                        <g id="Clip-16"></g>
                        <path d="M7.077994,8.10290323 C6.754674,10.3685806 6.714554,13.4610968 8.183654,15.8800645 C9.056854,17.3189032 10.391434,18.3791613 12.226334,19.0863871 C12.497734,17.0309032 12.498914,14.2031613 11.169054,11.8027742 C10.294674,10.2210968 8.943574,8.99825806 7.077994,8.10290323 M14.627634,26.0912903 C14.452994,26.0912903 14.278354,26.0785161 14.100174,26.0483226 C8.788994,25.1773548 4.946914,22.8280645 2.678954,19.0654839 C-1.454586,12.2034194 1.611054,3.32070968 1.744394,2.94677419 C2.286014,1.41270968 3.922674,0.533612903 5.529834,0.929612903 C10.842194,2.23025806 14.635894,4.89309677 16.803554,8.84612903 C20.535894,15.6524516 17.759354,23.6514194 17.637814,23.9893548 C17.183514,25.2644516 15.963394,26.0912903 14.627634,26.0912903" id="Fill-15" fill="#002043" mask="url(#mask-6)"></path>
                    </g>
                    <path d="M14.128944,130.110944 C15.864173,123.120362 8.49547836,116.86056 8.49547836,116.86056 C0.990245241,126.860594 7.2473714,134.704217 9.31055844,136.119357 C9.57627826,136.299744 9.81845452,136.518427 10.1018316,136.669803 C20.1853456,142.065753 28.1103503,131.038432 28.1103503,131.038432 C21.8044149,127.944991 17.2439144,128.532203 14.128944,130.110944" id="Fill-18" fill="#56ED7D" transform="translate(16.506307, 127.508567) rotate(-5.000000) translate(-16.506307, -127.508567) "></path>
                    <path d="M13.5649282,131.104363 C15.3001572,124.113781 7.93264243,117.853981 7.93264243,117.853981 C0.426227828,127.852851 6.68453384,135.696476 8.74772089,137.111616 C9.01344233,137.293165 9.25561696,137.510686 9.53899566,137.663223 C19.6213282,143.058011 27.5475128,132.030691 27.5475128,132.030691 C21.2403991,128.93841 16.6810785,129.525624 13.5649282,131.104363" id="Fill-20" fill="#3CCE68" transform="translate(15.943208, 128.501708) rotate(-5.000000) translate(-15.943208, -128.501708) "></path>
                    <path d="M25.4433787,113.771929 C26.4657818,106.643317 18.5058463,101.131824 18.5058463,101.131824 C12.0445644,111.817377 19.0606126,119.013967 21.2556529,120.221392 C21.5378534,120.37509 21.8000531,120.56941 22.0975495,120.692931 C32.6716509,125.079113 39.3278812,113.744588 39.3278812,113.744588 C33.1551137,110.539834 28.3821344,111.89562 25.4433787,113.771929" id="Fill-22" fill="#56ED7D" transform="translate(27.581677, 111.416872) rotate(-5.000000) translate(-27.581677, -111.416872) "></path>
                    <path d="M25.1030265,114.846811 C26.1254296,107.718199 18.1654941,102.206706 18.1654941,102.206706 C11.705392,112.892261 18.7202603,120.088849 20.9153007,121.296274 C21.1975028,121.451133 21.4597009,121.644292 21.7571989,121.768974 C32.3313003,126.155156 39.1049365,114.406163 39.1049365,114.406163 C32.5202551,111.941833 28.0429636,112.971665 25.1030265,114.846811" id="Fill-24" fill="#3CCE68" transform="translate(27.300289, 112.478168) rotate(-5.000000) translate(-27.300289, -112.478168) "></path>
                    <path d="M34.2197804,95.1911421 C34.4492232,87.9929136 25.9300898,83.3633378 25.9300898,83.3633378 C20.6896613,94.6800671 28.4561711,101.085595 30.7700392,102.051606 C31.0675372,102.176289 31.3509322,102.340441 31.66018,102.430297 C42.6526945,105.661432 48.4383007,93.5614875 48.4383007,93.5614875 C41.6221945,91.8169262 36.9351174,93.0102304 34.2197804,95.1911421" id="Fill-26" fill="#56ED7D" transform="translate(36.293688, 93.171059) rotate(-5.000000) translate(-36.293688, -93.171059) "></path>
                    <path d="M34.0969109,96.2678358 C34.3263553,89.0707688 25.8072219,84.4411929 25.8072219,84.4411929 C20.5667934,95.7579223 28.3333032,102.16345 30.6471697,103.1283 C30.9446677,103.252983 31.2280626,103.417135 31.5373121,103.508152 C42.529825,106.738125 47.9645845,94.3310807 47.9645845,94.3310807 C41.1472968,92.5853563 36.8122494,94.0880856 34.0969109,96.2678358" id="Fill-28" fill="#3CCE68" transform="translate(35.995396, 94.242970) rotate(-5.000000) translate(-35.995396, -94.242970) "></path>
                    <path d="M40.2423296,75.3262154 C38.3684156,68.3608613 28.8653685,66.3234045 28.8653685,66.3234045 C27.1423249,78.6519367 36.4403957,82.6043097 38.9361736,82.8783592 C39.2559622,82.9124809 39.5758158,82.99306 39.8979154,82.9923468 C52.941163,82.9522287 52.9531094,69.5609549 52.9531094,69.5609549 C45.9203356,69.8079481 42.2063348,72.4706398 40.2423296,75.3262154" id="Fill-30" fill="#56ED7D" transform="translate(40.803501, 74.657876) rotate(-5.000000) translate(-40.803501, -74.657876) "></path>
                    <path d="M40.3350747,76.3700627 C38.4611591,69.4035471 28.9581136,67.3672517 28.9581136,67.3672517 C27.2350684,79.6946225 36.5331408,83.6481569 39.0289171,83.921045 C39.3487073,83.9563282 39.6685577,84.0345844 39.9906589,84.0350279 C51.4541336,84.0333895 53.0458529,70.6036407 53.0458529,70.6036407 C46.0130791,70.8506339 42.2990799,73.514487 40.3350747,76.3700627" id="Fill-32" fill="#3CCE68" transform="translate(40.896245, 75.701140) rotate(-5.000000) translate(-40.896245, -75.701140) "></path>
                    <path d="M40.0566498,54.3888401 C36.7440613,47.9592474 27.0243612,47.9237979 27.0243612,47.9237979 C27.9608375,60.3419376 37.887335,62.2951931 40.3871029,62.0477659 C40.7067973,62.0145246 41.0348124,62.025429 41.3497419,61.9596611 C52.5527051,59.5964765 51.252544,46.1279032 51.252544,46.1279032 C44.4329855,47.8200091 41.3688959,51.1909066 40.0566498,54.3888401" id="Fill-34" fill="#56ED7D" transform="translate(39.161523, 54.097629) rotate(-5.000000) translate(-39.161523, -54.097629) "></path>
                    <path d="M40.1493955,55.4326872 C36.836807,49.0030945 27.1171069,48.9676451 27.1171069,48.9676451 C28.0535832,61.3857848 37.9800791,63.3378788 40.479847,63.0904516 C40.799543,63.0583717 41.1275581,63.0692762 41.4424876,63.0035083 C52.6454509,60.6403236 51.3452897,47.1717503 51.3452897,47.1717503 C44.5257296,48.8626948 41.4616399,52.2335923 40.1493955,55.4326872" id="Fill-36" fill="#3CCE68" transform="translate(39.254269, 55.140900) rotate(-5.000000) translate(-39.254269, -55.140900) "></path>
                    <path d="M35.2032054,34.1049481 C30.5456109,28.5399305 20.5094962,30.8826545 20.5094962,30.8826545 C24.1790063,42.8063035 34.8429993,42.2902123 37.2240391,41.511848 C37.5306625,41.4123872 37.8514977,41.3512731 38.1450971,41.2192743 C48.5460071,36.5030893 44.2887837,23.6320654 44.2887837,23.6320654 C38.0139531,26.7499962 35.7730317,30.6992579 35.2032054,34.1049481" id="Fill-38" fill="#56ED7D" transform="translate(32.830441, 32.745622) rotate(-5.000000) translate(-32.830441, -32.745622) "></path>
                    <path d="M35.2933012,35.1249233 C30.6357051,29.5587442 21.1490013,31.61419 21.1490013,31.61419 C24.818513,43.5390004 34.9330951,43.3101875 37.3141349,42.5318232 C37.6207566,42.4312009 37.9415935,42.3712483 38.2351929,42.2392495 C48.6361013,37.521903 44.3788779,24.6508792 44.3788779,24.6508792 C38.1040473,27.76881 35.8631275,31.7192331 35.2933012,35.1249233" id="Fill-40" fill="#3CCE68" transform="translate(33.195240, 33.746610) rotate(-5.000000) translate(-33.195240, -33.746610) "></path>
                    <path d="M29.6307187,23.7706665 C29.6307187,23.7706665 35.0320441,8.54826886 19.73939,4.78392409 C19.73939,4.78392409 13.9609693,21.1776856 29.6307187,23.7706665" id="Fill-42" fill="#56ED7D" transform="translate(24.627308, 14.277295) rotate(-5.000000) translate(-24.627308, -14.277295) "></path>
                    <path d="M29.723525,24.8146272 C29.723525,24.8146272 35.1248487,9.59106808 19.8321962,5.82788474 C19.8321962,5.82788474 14.0537755,22.2216463 29.723525,24.8146272" id="Fill-44" fill="#3CCE68" transform="translate(24.720114, 15.321256) rotate(-5.000000) translate(-24.720114, -15.321256) "></path>
                </g>
            </g>
        </g>
    </g>
</svg>