<?xml version="1.0" encoding="UTF-8"?>
<svg width="57px" height="59px" viewBox="0 0 57 59" version="1.1" xmlns="http://www.w3.org/2000/svg" xmlns:xlink="http://www.w3.org/1999/xlink">
    <!-- Generator: Sketch 60.1 (88133) - https://sketch.com -->
    <title>Group 7</title>
    <desc>Created with Sketch.</desc>
    <defs>
        <polygon id="path-1" points="0 0.333142857 46.6724586 0.333142857 46.6724586 47.5918367 0 47.5918367"></polygon>
        <polygon id="path-3" points="0 0.356367347 46.6724586 0.356367347 46.6724586 47.0777061 0 47.0777061"></polygon>
    </defs>
    <g id="Welcome" stroke="none" stroke-width="1" fill="none" fill-rule="evenodd">
        <g id="Desktop-HD-Copy-19" transform="translate(-775.000000, -598.000000)">
            <g id="Group-7" transform="translate(776.000000, 599.000000)">
                <g id="Group-3" fill="#002043" stroke="#002143">
                    <path d="M55,26.6763896 C55,12.0204627 42.6864462,0.0943396226 27.5506886,0.0943396226 C12.413262,0.0943396226 0.0980392157,12.0204627 0.0980392157,26.6763896 C0.0980392157,27.3875285 0.146438926,28.0485644 0.188162814,28.5075723 C0.138094148,29.1379 0.0980392157,29.7730764 0.0980392157,30.4163338 C0.0980392157,45.0722607 12.413262,56.9983838 27.5506886,57 C42.6864462,57 55,45.0738769 55,30.4163338 C55,29.8409578 54.9682898,29.2251761 54.9115454,28.5883835 C54.961614,27.9564396 55,27.3212633 55,26.6763896" id="Fill-1"></path>
                </g>
                <g id="Group-15" transform="translate(4.000000, 3.000000)">
                    <g id="Group-3" transform="translate(0.000000, 3.326531)">
                        <mask id="mask-2" fill="white">
                            <use xlink:href="#path-1"></use>
                        </mask>
                        <g id="Clip-2"></g>
                        <path d="M46.6724586,23.9616692 C46.6724586,37.0116791 36.2238724,47.5918367 23.3361483,47.5918367 C10.4468034,47.5918367 -0.000162068966,37.0116791 -0.000162068966,23.9616692 C-0.000162068966,10.9116594 10.4468034,0.333142857 23.3361483,0.333142857 C36.2238724,0.333142857 46.6724586,10.9116594 46.6724586,23.9616692" id="Fill-1" fill="#AF5009" mask="url(#mask-2)"></path>
                    </g>
                    <g id="Group-6">
                        <mask id="mask-4" fill="white">
                            <use xlink:href="#path-3"></use>
                        </mask>
                        <g id="Clip-5"></g>
                        <path d="M46.6724586,23.7176857 C46.6724586,36.6194 36.2238724,47.0777061 23.3361483,47.0777061 C10.4468034,47.0777061 -0.000162068965,36.6194 -0.000162068965,23.7176857 C-0.000162068965,10.8159714 10.4468034,0.356042857 23.3361483,0.356042857 C36.2238724,0.356042857 46.6724586,10.8159714 46.6724586,23.7176857" id="Fill-4" fill="#FCC097" mask="url(#mask-4)"></path>
                    </g>
                    <path d="M43.7209302,23.877551 C43.7209302,35.2277148 34.4248241,44.4285714 22.9534884,44.4285714 C11.485441,44.4285714 2.18604651,35.2277148 2.18604651,23.877551 C2.18604651,12.5257602 11.485441,3.32653061 22.9534884,3.32653061 C34.4248241,3.32653061 43.7209302,12.5257602 43.7209302,23.877551" id="Fill-7" fill="#D86100"></path>
                    <path d="M22.9534884,3.32653061 C11.4837968,3.32653061 2.18604651,12.5257602 2.18604651,23.877551 C2.18604651,35.2260877 11.4837968,44.4285714 22.9534884,44.4285714 C34.4248241,44.4285714 43.7209302,35.2260877 43.7209302,23.877551 C43.7209302,12.5257602 34.4248241,3.32653061 22.9534884,3.32653061 M22.9534884,4.60863053 C33.6898826,4.61025756 42.4253286,13.2530428 42.4253286,23.877551 C42.4253286,34.5004322 33.6898826,43.1448445 22.9534884,43.1448445 C12.2187383,43.1448445 3.48329231,34.5004322 3.48329231,23.877551 C3.48329231,13.2530428 12.2187383,4.60863053 22.9534884,4.60863053" id="Fill-9" fill="#96450E"></path>
                    <path d="M30.4829716,22.8033466 L30.4829716,22.8033466 C30.2181116,22.4504709 29.9228079,22.133943 29.5940161,21.8507338 C29.799511,21.6356766 29.9867396,21.4024455 30.1572242,21.1540695 C30.8513401,20.1499642 31.2029646,18.9822942 31.2029646,17.6798349 C31.2029646,16.3213394 30.8315517,15.0991479 30.0993812,14.049608 C29.3809104,13.0182419 28.3610471,12.2185924 27.0671907,11.6703479 C25.8494435,11.1584511 24.447512,10.8979592 22.8994508,10.8979592 C21.6543043,10.8979592 20.4122022,11.0857557 19.2020659,11.4552906 C17.9721412,11.8323981 16.8807353,12.3685267 15.9430699,13.0636765 C15.4514045,13.437755 15.0876025,13.8587825 14.8592749,14.3116143 C14.6294251,14.7720186 14.5122169,15.3157196 14.5122169,15.9275727 C14.5122169,16.8317218 14.777077,17.6207698 15.2961417,18.273514 C15.8821826,19.012584 16.7041619,19.4214957 17.6113836,19.4214957 C18.0589057,19.4214957 18.4775063,19.3427423 18.8595745,19.1882646 C19.0924686,19.0943663 19.4090829,18.9429176 19.7607074,18.7581501 L20.3665366,18.4719119 C20.8612465,18.2250504 21.3148573,18.025138 21.7136695,17.8797472 C22.0028845,17.7752476 22.3088434,17.723755 22.6498127,17.723755 C22.8750959,17.723755 23.1749661,17.7525303 23.3241402,17.8903486 C23.3576282,17.9206384 23.4611367,18.0175656 23.4611367,18.3916441 C23.4611367,18.4916002 23.4489593,18.5430928 23.4489593,18.5552087 C23.3987272,18.587013 23.0638467,18.7596646 22.0439834,18.7596646 L20.832325,18.7596646 C19.8337722,18.7596646 18.9889601,19.1473734 18.3937862,19.8788709 C17.8716771,20.5210137 17.5946396,21.3146052 17.5946396,22.1733197 C17.5946396,23.0320342 17.8716771,23.8256257 18.3937862,24.466254 C18.9874379,25.1977515 19.8307279,25.5854604 20.832325,25.5854604 L22.5402154,25.5854604 C23.6422766,25.5854604 23.9558465,25.7884017 23.9634575,25.7914307 C23.9634575,25.7914307 24.0121674,25.873213 24.0121674,26.1170455 C24.0121674,26.4169141 23.9558465,26.5577614 23.9406247,26.5774498 C23.926925,26.5865367 23.6422766,26.7864491 22.595014,26.7864491 C22.1688025,26.7864491 21.7943452,26.7349565 21.477731,26.6274279 C21.0789188,26.4971819 20.6131305,26.2987841 20.0149121,26.003459 L19.6876426,25.8610971 C19.6100112,25.8262639 19.5445573,25.7959742 19.509547,25.7778003 C19.1061683,25.565772 18.7880318,25.4158378 18.5551377,25.320425 C18.1761139,25.1674618 17.7575133,25.0887084 17.308469,25.0887084 C16.390592,25.0887084 15.5914454,25.4855042 14.9947493,26.2351756 C14.4726402,26.8909487 14.2093023,27.6815113 14.2093023,28.5826314 C14.2093023,29.1702526 14.3234661,29.7033523 14.545705,30.1607276 C14.7755548,30.6362767 15.1439233,31.0694201 15.653855,31.457129 C16.6006534,32.1628802 17.722503,32.7065813 18.9889601,33.0746018 C20.2188848,33.4320209 21.5142634,33.6122449 22.84313,33.6122449 C24.5160103,33.6122449 26.0123171,33.3502385 27.2924739,32.8337982 C28.6563508,32.2855537 29.7371014,31.4783318 30.50276,30.4378788 C31.2958178,29.3625926 31.6976744,28.0934519 31.6976744,26.6652901 C31.6976744,25.1795777 31.2882069,23.8816618 30.4829716,22.8033466" id="Fill-11" fill="#96450E"></path>
                    <path d="M29.6336345,23.7365189 C30.2809789,24.5893367 30.6046512,25.6231029 30.6046512,26.8378175 C30.6046512,27.9958874 30.2857859,29.0013313 29.6480555,29.8557225 C29.0103251,30.7085403 28.1082089,31.3693954 26.9385024,31.8335675 C25.7687958,32.2977395 24.4020017,32.5306122 22.8381201,32.5306122 C21.5818873,32.5306122 20.3737246,32.363825 19.2152344,32.031824 C18.0551418,31.7013964 17.0488737,31.2214897 16.1996347,30.5952509 C15.8695531,30.3482169 15.6404188,30.0885953 15.5058225,29.8116655 C15.3696238,29.5378827 15.3023256,29.2106021 15.3023256,28.8298236 C15.3023256,28.2429214 15.4641617,27.7441331 15.7926409,27.3366058 C16.1211202,26.927505 16.5265116,26.7229546 17.0104176,26.7229546 C17.2812127,26.7229546 17.5231657,26.7670116 17.7346743,26.8504052 C17.9477852,26.9369458 18.2378084,27.0754107 18.6047437,27.2642264 C18.6832582,27.303563 18.7761938,27.3460466 18.8803458,27.3932505 C18.9861001,27.4404544 19.1078778,27.4923788 19.2440765,27.550597 C19.8609765,27.8527022 20.4169877,28.0855749 20.9105077,28.2460683 C21.4024254,28.4081351 21.9584366,28.4899553 22.576939,28.4899553 C23.658517,28.4899553 24.4356508,28.3184477 24.9099428,27.9754324 C25.3842347,27.635564 25.6197784,27.0643964 25.6197784,26.2682234 C25.6197784,25.528695 25.3778254,24.9984375 24.8955217,24.6758772 C24.4116157,24.353317 23.6200609,24.1896767 22.5192548,24.1896767 L20.7214319,24.1896767 C20.1413856,24.1896767 19.687924,23.9914202 19.3594448,23.5933336 C19.0309655,23.1936736 18.8659248,22.7200608 18.8659248,22.1709217 C18.8659248,21.6202091 19.0309655,21.1465963 19.3594448,20.7469363 C19.687924,20.3488497 20.1413856,20.1490197 20.7214319,20.1490197 L21.9952904,20.1490197 C23.0576403,20.1490197 23.8331718,19.9979672 24.3154755,19.6942885 C24.7977791,19.3906098 25.0413345,18.9075562 25.0413345,18.2419807 C25.0413345,17.5402155 24.8266212,16.9942233 24.4020017,16.6055776 C23.9773822,16.2185053 23.3877219,16.0233957 22.6346232,16.0233957 C22.093033,16.0233957 21.5866943,16.1067893 21.1140046,16.2798704 C20.6397127,16.4498046 20.1125435,16.677957 19.5324973,16.9611806 L18.9236089,17.2459777 C18.5566736,17.4363669 18.2666504,17.5732583 18.0551418,17.6597988 C17.8420309,17.7431925 17.6000779,17.7872495 17.3292828,17.7872495 C16.8485815,17.7872495 16.4415877,17.5826991 16.1131085,17.1751718 C15.7830269,16.766071 15.6195885,16.2688562 15.6195885,15.6819539 C15.6195885,15.2822939 15.688489,14.9502929 15.8230854,14.6843774 C15.9576817,14.4200353 16.1900207,14.1635606 16.5184999,13.9165267 C17.3501132,13.3091694 18.3291416,12.8339831 19.4603921,12.4925413 C20.5900402,12.1510995 21.7357117,11.9795918 22.8958042,11.9795918 C24.3250895,11.9795918 25.5861293,12.2093177 26.6773213,12.6640489 C27.7685133,13.1187802 28.6097407,13.7639006 29.1994009,14.5978368 C29.7890612,15.43492 30.0838914,16.4026007 30.0838914,17.5024524 C30.0838914,18.5456594 29.806687,19.4614157 29.2570851,20.248148 C28.7074833,21.0364538 27.9383611,21.6091948 26.9529234,21.9710917 C28.0937879,22.2936519 28.98629,22.8821277 29.6336345,23.7365189" id="Fill-13" fill="#FCC097"></path>
                </g>
            </g>
        </g>
    </g>
</svg>