<?xml version="1.0" encoding="UTF-8"?>
<svg width="54px" height="58px" viewBox="0 0 54 58" version="1.1" xmlns="http://www.w3.org/2000/svg" xmlns:xlink="http://www.w3.org/1999/xlink">
    <!-- Generator: Sketch 60.1 (88133) - https://sketch.com -->
    <title>Group 4</title>
    <desc>Created with Sketch.</desc>
    <g id="Welcome" stroke="none" stroke-width="1" fill="none" fill-rule="evenodd">
        <g id="Desktop-HD-Copy-19" transform="translate(-775.000000, -668.000000)">
            <g id="Group-4" transform="translate(776.000000, 669.000000)">
                <g id="Group-3" fill="#002043" stroke="#002143">
                    <path d="M52,26.1589934 C52,11.7363174 40.3373054,0 26.0015807,0 C11.6642753,0 0,11.7363174 0,26.1589934 C0,26.8588145 0.0458414397,27.50933 0.0853599222,27.9610327 C0.0379377432,28.5813286 0,29.2063961 0,29.8394161 C0,44.2620921 11.6642753,55.9984095 26.0015807,56 C40.3373054,56 52,44.2636826 52,29.8394161 C52,29.2731972 51.969966,28.6672158 51.9162208,28.0405578 C51.963643,27.4186714 52,26.7936039 52,26.1589934" id="Fill-1"></path>
                </g>
                <path d="M49.8333333,29.647878 C49.8333333,42.3826988 39.404624,52.7058824 26.5416667,52.7058824 C13.6770545,52.7058824 3.25,42.3810604 3.25,29.6462397 C3.25,16.9130572 13.6770545,6.58823529 26.5416667,6.58823529 C39.404624,6.58823529 49.8333333,16.9130572 49.8333333,29.647878" id="Fill-4" fill="#7F7F7F"></path>
                <path d="M49.8333333,25.2540828 C49.8333333,37.9889036 39.404624,48.3137255 26.5416667,48.3137255 C13.6770545,48.3137255 3.25,37.9889036 3.25,25.2540828 C3.25,12.519262 13.6770545,2.19607843 26.5416667,2.19607843 C39.404624,2.19607843 49.8333333,12.519262 49.8333333,25.2540828" id="Fill-6" fill="#EFEFEF"></path>
                <path d="M46.5833333,25.2540571 C46.5833333,36.7756655 37.3677614,46.1176471 26,46.1176471 C14.6322386,46.1176471 5.41666667,36.7756655 5.41666667,25.2540571 C5.41666667,13.7341384 14.6322386,4.39215686 26,4.39215686 C37.3677614,4.39215686 46.5833333,13.7341384 46.5833333,25.2540571" id="Fill-8" fill="#B2B2B2"></path>
                <path d="M26.0008335,4.39215686 C14.6335324,4.39215686 5.41666667,13.7328271 5.41666667,25.254902 C5.41666667,36.7769769 14.6335324,46.1176471 26.0008335,46.1176471 C37.3664676,46.1176471 46.5833333,36.7769769 46.5833333,25.254902 C46.5833333,13.7328271 37.3664676,4.39215686 26.0008335,4.39215686 M26.0008335,5.69491676 C36.6413208,5.69491676 45.2964062,14.4695369 45.2964062,25.254902 C45.2964062,36.0385773 36.6413208,44.8148872 26.0008335,44.8148872 C15.3603462,44.8148872 6.70359384,36.0385773 6.70359384,25.254902 C6.70359384,14.4695369 15.3603462,5.69491676 26.0008335,5.69491676" id="Fill-10" fill="#595959"></path>
                <path d="M34.6326994,31.0796327 L34.630991,31.0778853 C33.9595857,30.5222338 33.0592532,30.24965 31.8753247,30.24965 L29.1042826,30.24965 L31.0962894,28.1685778 C32.3570965,26.8143956 33.2352195,25.5965053 33.7802025,24.4450137 C34.3456865,23.2533333 34.6326994,21.9288558 34.6326994,20.5065277 C34.6326994,19.0579896 34.2568491,17.749238 33.5136905,16.6152197 C32.7773655,15.4916853 31.7318182,14.6197667 30.4043831,14.0256739 C29.1452845,13.463033 27.682885,13.1764706 26.0547696,13.1764706 C24.8144635,13.1764706 23.5416976,13.3791611 22.2757653,13.7775527 C21.0081246,14.1759444 19.8464054,14.7385853 18.8299011,15.448002 C18.2746676,15.827173 17.8748995,16.2762373 17.6459725,16.7829635 C17.435838,17.2477538 17.3333333,17.7876793 17.3333333,18.4324448 C17.3333333,19.349794 17.5895949,20.165798 18.0987013,20.8524994 C18.8384431,21.8537205 19.7507344,22.0634003 20.3845547,22.0634003 C20.72282,22.0634003 21.0525433,22.0109804 21.3583488,21.9061405 C21.621444,21.8152792 21.8947897,21.687724 22.1920532,21.5147381 C22.3919372,21.3994142 22.5269017,21.3225316 22.5901129,21.2893323 L23.1760977,20.9922859 C23.7552489,20.6952395 24.2609385,20.471581 24.6794991,20.3230578 C25.0194728,20.2007446 25.4038652,20.139588 25.8224258,20.139588 C26.1709416,20.139588 26.4323284,20.2059866 26.5587508,20.3248052 C26.6834647,20.4401291 26.7073825,20.7004815 26.7073825,20.89793 C26.7073825,21.6842293 26.1641079,22.6819558 25.1339363,23.7810276 L18.9101964,30.4191412 C18.0013219,31.3766791 17.5383426,32.4827401 17.5383426,33.7023778 C17.5383426,34.7105882 17.8817331,35.6017275 18.5292208,36.2814396 C18.9887832,36.7619558 19.8139456,37.3333333 21.1482143,37.3333333 L31.8753247,37.3333333 C33.0490028,37.3333333 33.981795,37.0467709 34.6480751,36.4788881 C35.1503479,36.0472971 35.75,35.2260511 35.75,33.761787 C35.75,32.3149963 35.1435142,31.5042343 34.6326994,31.0796327" id="Fill-12" fill="#595959"></path>
                <path d="M34.0591462,30.4814721 C34.4647072,30.8049033 34.6666667,31.3085549 34.6666667,31.9892087 C34.6666667,32.6923901 34.4647072,33.2073055 34.0591462,33.5403914 C33.6535852,33.8718682 33.037855,34.0392157 32.2086716,34.0392157 L21.9005269,34.0392157 C21.2224027,34.0392157 20.683844,33.8412951 20.2897766,33.4438448 C19.8940673,33.0463944 19.6970337,32.5427428 19.6970337,31.934499 C19.6970337,31.1412074 20.0155714,30.421935 20.6575728,29.7766816 L26.6441124,23.658843 C27.8870665,22.3860365 28.5093645,21.2129948 28.5093645,20.1429363 C28.5093645,19.5169922 28.3254664,19.0358682 27.9576702,18.7043914 C27.591516,18.3713055 27.0677348,18.2055671 26.3912526,18.2055671 C25.8444841,18.2055671 25.3404063,18.2844135 24.8790192,18.4404972 C24.417632,18.596581 23.887283,18.8234656 23.2846884,19.1179328 L22.7182166,19.3946998 C22.642687,19.4333185 22.4965537,19.5121649 22.2798167,19.6312391 C22.0630796,19.7503133 21.8709718,19.8388144 21.7034932,19.8935241 C21.5327307,19.9482339 21.3537584,19.9771979 21.1649345,19.9771979 C20.6936956,19.9771979 20.2996283,19.7696226 19.9794486,19.3544721 C19.6576269,18.9377124 19.5,18.4453246 19.5,17.8724812 C19.5,17.4669853 19.5591101,17.1355085 19.6822561,16.8764417 C19.8037602,16.618984 20.0352748,16.3776174 20.3751579,16.1571692 C21.2585255,15.5650165 22.2535455,15.1032018 23.3536502,14.771725 C24.4553968,14.4402482 25.5423658,14.2745098 26.6161993,14.2745098 C28.0102126,14.2745098 29.2351052,14.4997853 30.2892353,14.9535545 C31.3433655,15.4057146 32.1577713,16.0493588 32.7324528,16.8909237 C33.3054924,17.7292703 33.5944751,18.6947367 33.5944751,19.7841046 C33.5944751,20.9088729 33.3629606,21.9370946 32.9015734,22.8703788 C32.4401862,23.8020539 31.6536935,24.8399302 30.5420952,25.9840079 L26.53246,29.9971298 L32.2086716,29.9971298 C33.037855,29.9971298 33.6535852,30.15965 34.0591462,30.4814721" id="Fill-14" fill="#EFEFEF"></path>
            </g>
        </g>
    </g>
</svg>