<?xml version="1.0" encoding="UTF-8"?>
<svg width="61px" height="67px" viewBox="0 0 61 67" version="1.1" xmlns="http://www.w3.org/2000/svg" xmlns:xlink="http://www.w3.org/1999/xlink">
    <!-- Generator: Sketch 60.1 (88133) - https://sketch.com -->
    <title>Group 18</title>
    <desc>Created with Sketch.</desc>
    <defs>
        <polygon id="path-1" points="0 0.814313918 60.8202226 0.814313918 60.8202226 66.4888889 0 66.4888889"></polygon>
    </defs>
    <g id="Welcome" stroke="none" stroke-width="1" fill="none" fill-rule="evenodd">
        <g id="Desktop-HD-Copy-19" transform="translate(-1236.000000, -566.000000)">
            <g id="Group-18" transform="translate(1236.000000, 566.000000)">
                <g id="Group-3">
                    <mask id="mask-2" fill="white">
                        <use xlink:href="#path-1"></use>
                    </mask>
                    <g id="Clip-2"></g>
                    <path d="M60.8202226,31.6359966 C60.8202226,14.6416699 47.1780906,0.814313918 30.4099962,0.814313918 C13.6419019,0.814313918 -0.000230188679,14.6416699 -0.000230188679,31.6359966 C-0.000230188679,32.2588925 0.0239396226,32.9214484 0.0734301887,33.6528262 C0.0239396226,34.381871 -0.000230188679,35.044427 -0.000230188679,35.6684894 C-0.000230188679,52.6628161 13.6419019,66.4890055 30.4099962,66.4890055 C47.1780906,66.4890055 60.8202226,52.6628161 60.8202226,35.6684894 C60.8202226,35.0432605 60.7972038,34.381871 60.7488642,33.6528262 C60.7972038,32.9237814 60.8202226,32.2600589 60.8202226,31.6359966" id="Fill-1" fill="#002043" mask="url(#mask-2)"></path>
                </g>
                <path d="M56.5365854,35.5117008 C56.5365854,50.1158509 44.8803886,61.9555556 30.5,61.9555556 C16.1207726,61.9555556 4.46341463,50.1158509 4.46341463,35.5117008 C4.46341463,20.9063713 16.1207726,9.06666667 30.5,9.06666667 C44.8803886,9.06666667 56.5365854,20.9063713 56.5365854,35.5117008" id="Fill-4" fill="#A55E02"></path>
                <path d="M56.5365854,32.4882992 C56.5365854,47.0936287 44.8803886,58.9333333 30.5,58.9333333 C16.1207726,58.9333333 4.46341463,47.0936287 4.46341463,32.4882992 C4.46341463,17.8841491 16.1207726,6.04444444 30.5,6.04444444 C44.8803886,6.04444444 56.5365854,17.8841491 56.5365854,32.4882992" id="Fill-6" fill="#FFEECC"></path>
                <path d="M52.0731707,32.4882935 C52.0731707,45.4238333 42.0807224,55.9111111 29.7555303,55.9111111 C17.4314728,55.9111111 7.43902439,45.4238333 7.43902439,32.4882935 C7.43902439,19.5539445 17.4314728,9.06666667 29.7555303,9.06666667 C42.0807224,9.06666667 52.0731707,19.5539445 52.0731707,32.4882935" id="Fill-8" fill="#FFC033"></path>
                <path d="M38.9325585,38.1863446 C38.1713287,37.5158254 37.1246377,37.1907981 35.7349234,37.1907981 L34.5883797,37.1907981 L34.5883797,22.7451413 C34.5883797,21.378823 34.1596006,20.2544693 33.3090907,19.4009718 C31.6973511,17.7878734 29.1129289,17.7084223 26.5602245,19.196325 L21.2562853,22.3563124 C20.0216364,23.1135056 19.3414634,24.3462016 19.3414634,25.8256776 C19.3414634,26.8790068 19.6821373,27.839643 20.3552618,28.6811025 C21.0929968,29.6092359 22.0598057,30.1003883 23.149962,30.1003883 C23.8277854,30.1003883 24.4821141,29.9113909 25.0976765,29.5406191 L25.3878367,29.3660674 L25.3878367,37.1907981 L24.2730109,37.1907981 C22.8832966,37.1907981 21.8377803,37.5158254 21.0765505,38.1863446 C20.2659817,38.8977932 19.8383773,39.9499186 19.8383773,41.2283592 C19.8383773,43.7984823 21.4959317,45.3333333 24.2730109,45.3333333 L35.7349234,45.3333333 C38.5131773,45.3333333 40.1707317,43.7984823 40.1707317,41.2283592 C40.1707317,39.9499186 39.7419526,38.8977932 38.9325585,38.1863446" id="Fill-10" fill="#A55E02"></path>
                <path d="M37.9840376,38.2184238 C37.5173217,37.8341659 36.7840803,37.642037 35.7854979,37.642037 L33.0539071,37.642037 L33.0539071,22.489999 C33.0539071,21.6157555 32.7814588,20.9234092 32.2377466,20.4118233 C31.6928499,19.9002374 30.9773769,19.6444444 30.0889584,19.6444444 C29.2230465,19.6444444 28.3014603,19.9104691 27.3241999,20.4436553 L21.9948734,23.4165379 C21.2178033,23.8644598 20.8292683,24.5249741 20.8292683,25.3992176 C20.8292683,26.0381315 21.0507806,26.6190658 21.4961745,27.1408834 C21.9391992,27.6638379 22.4722503,27.9241783 23.0953278,27.9241783 C23.4945238,27.9241783 23.8830589,27.8184505 24.2597483,27.6047213 L26.9250039,26.1029324 L26.9250039,37.642037 L24.2277653,37.642037 C23.2279983,37.642037 22.4947569,37.8341659 22.028041,38.2184238 C21.5625097,38.6015448 21.3291518,39.1779316 21.3291518,39.9453105 C21.3291518,41.5221319 22.2957511,42.3111111 24.2277653,42.3111111 L35.7854979,42.3111111 C37.717512,42.3111111 38.6829268,41.5221319 38.6829268,39.9453105 C38.6829268,39.1779316 38.4507535,38.6015448 37.9840376,38.2184238" id="Fill-12" fill="#FFEECC"></path>
                <path d="M29.7555303,9.06666667 C17.4314728,9.06666667 7.43902439,19.5539445 7.43902439,32.4882935 C7.43902439,45.4238333 17.4314728,55.9111111 29.7555303,55.9111111 C42.0807224,55.9111111 52.0731707,45.4238333 52.0731707,32.4882935 C52.0731707,19.5539445 42.0807224,9.06666667 29.7555303,9.06666667 M29.7555303,10.5301462 C41.2933079,10.5301462 50.6776091,20.380352 50.6776091,32.4882935 C50.6776091,44.5974258 41.2933079,54.4476316 29.7555303,54.4476316 C18.2188872,54.4476316 8.83345144,44.5974258 8.83345144,32.4882935 C8.83345144,20.380352 18.2188872,10.5301462 29.7555303,10.5301462" id="Fill-14" fill="#A55E02"></path>
                <path d="M51.6922608,19.096352 C51.6549945,19.0829978 47.9371418,17.7175281 46.6602259,13.9883601 C46.6229597,13.8793006 46.5550037,13.7869339 46.4684145,13.7201627 C46.3971703,13.6634073 46.3105812,13.6244574 46.2163196,13.6077646 C45.9401112,13.5621377 45.6748634,13.7212756 45.58389,13.9883601 C44.3058781,17.7175281 40.5891214,19.0829978 40.5518552,19.096352 C40.4762267,19.1230605 40.4104628,19.1653489 40.3567556,19.2187658 C40.2581097,19.3089068 40.1923458,19.435772 40.1748088,19.5771042 C40.1430229,19.8464145 40.2997602,20.1012576 40.5518552,20.1913987 C40.5891214,20.2047529 44.3058781,21.5713355 45.58389,25.3005034 C45.6211562,25.409563 45.6880162,25.5019297 45.7757014,25.567588 C45.8469456,25.6243435 45.9335348,25.6644061 46.0277964,25.6810989 C46.0595823,25.6855503 46.0924642,25.6888889 46.123154,25.6888889 C46.3620962,25.6888889 46.5791171,25.5353153 46.6602259,25.3005034 C47.9371418,21.5713355 51.6549945,20.2047529 51.6922608,20.1913987 C51.7722735,20.1624645 51.8424217,20.1168376 51.8972249,20.0578564 C51.9838141,19.9755053 52.0430016,19.8642201 52.0649229,19.7384678 C52.1120537,19.4613676 51.9531242,19.1898316 51.6922608,19.096352" id="Fill-16" fill="#EFEFEF"></path>
            </g>
        </g>
    </g>
</svg>