<svg width="265" height="57" viewBox="0 0 265 57" fill="none" xmlns="http://www.w3.org/2000/svg">
<g filter="url(#filter0_d_47_3708)">
<path d="M10.324 47.576C9.12933 47.576 8.148 47.2987 7.38 46.744C6.65467 46.1893 6.18533 45.4427 5.972 44.504C5.80133 43.5653 5.99333 42.52 6.548 41.368L22.932 5.464C23.6147 4.01333 24.4253 2.968 25.364 2.328C26.3027 1.64533 27.3907 1.304 28.628 1.304C29.8653 1.304 30.9533 1.64533 31.892 2.328C32.8307 2.968 33.62 4.01333 34.26 5.464L50.772 41.368C51.3267 42.52 51.5187 43.5867 51.348 44.568C51.22 45.5067 50.7933 46.2533 50.068 46.808C49.3427 47.32 48.404 47.576 47.252 47.576C45.8013 47.576 44.6707 47.2347 43.86 46.552C43.092 45.8693 42.4093 44.8027 41.812 43.352L37.972 34.456L41.94 37.208H15.252L19.22 34.456L15.444 43.352C14.804 44.8453 14.1213 45.9333 13.396 46.616C12.7133 47.256 11.6893 47.576 10.324 47.576ZM28.5 12.44L20.308 31.96L18.58 29.464H38.612L36.884 31.96L28.628 12.44H28.5ZM71.9835 47.576C70.6182 47.576 69.4875 47.2773 68.5915 46.68C67.7382 46.04 67.0342 45.08 66.4795 43.8L50.3515 7.96C49.7542 6.68 49.5835 5.54933 49.8395 4.568C50.0955 3.544 50.6288 2.75466 51.4395 2.2C52.2502 1.60266 53.2315 1.304 54.3835 1.304C55.8342 1.304 56.9435 1.64533 57.7115 2.328C58.4795 2.968 59.1195 3.928 59.6315 5.208L73.7755 37.912H70.5755L84.7195 5.144C85.2742 3.864 85.9355 2.904 86.7035 2.264C87.4715 1.624 88.5382 1.304 89.9035 1.304C91.0555 1.304 91.9942 1.60266 92.7195 2.2C93.4875 2.75466 93.9568 3.544 94.1275 4.568C94.3408 5.54933 94.1702 6.68 93.6155 7.96L77.4875 43.8C76.8902 45.08 76.1648 46.04 75.3115 46.68C74.5008 47.2773 73.3915 47.576 71.9835 47.576ZM97.0115 47.576C95.8168 47.576 94.8355 47.2987 94.0675 46.744C93.3422 46.1893 92.8728 45.4427 92.6595 44.504C92.4888 43.5653 92.6808 42.52 93.2355 41.368L109.62 5.464C110.302 4.01333 111.113 2.968 112.052 2.328C112.99 1.64533 114.078 1.304 115.316 1.304C116.553 1.304 117.641 1.64533 118.58 2.328C119.518 2.968 120.308 4.01333 120.948 5.464L137.46 41.368C138.014 42.52 138.206 43.5867 138.036 44.568C137.908 45.5067 137.481 46.2533 136.756 46.808C136.03 47.32 135.092 47.576 133.94 47.576C132.489 47.576 131.358 47.2347 130.548 46.552C129.78 45.8693 129.097 44.8027 128.5 43.352L124.66 34.456L128.628 37.208H101.94L105.908 34.456L102.132 43.352C101.492 44.8453 100.809 45.9333 100.084 46.616C99.4008 47.256 98.3768 47.576 97.0115 47.576ZM115.188 12.44L106.996 31.96L105.268 29.464H125.3L123.572 31.96L115.316 12.44H115.188ZM154.601 47.576C152.979 47.576 151.742 47.128 150.889 46.232C150.035 45.336 149.609 44.0773 149.609 42.456V10.072H138.281C136.958 10.072 135.934 9.70933 135.209 8.984C134.483 8.25867 134.12 7.256 134.12 5.976C134.12 4.65333 134.483 3.65066 135.209 2.968C135.934 2.24266 136.958 1.88 138.281 1.88H170.857C172.179 1.88 173.203 2.24266 173.929 2.968C174.654 3.65066 175.017 4.65333 175.017 5.976C175.017 7.256 174.654 8.25867 173.929 8.984C173.203 9.70933 172.179 10.072 170.857 10.072H159.529V42.456C159.529 44.0773 159.102 45.336 158.249 46.232C157.438 47.128 156.222 47.576 154.601 47.576ZM175.512 47.576C174.317 47.576 173.336 47.2987 172.568 46.744C171.842 46.1893 171.373 45.4427 171.16 44.504C170.989 43.5653 171.181 42.52 171.736 41.368L188.12 5.464C188.802 4.01333 189.613 2.968 190.552 2.328C191.49 1.64533 192.578 1.304 193.816 1.304C195.053 1.304 196.141 1.64533 197.08 2.328C198.018 2.968 198.808 4.01333 199.448 5.464L215.96 41.368C216.514 42.52 216.706 43.5867 216.536 44.568C216.408 45.5067 215.981 46.2533 215.256 46.808C214.53 47.32 213.592 47.576 212.44 47.576C210.989 47.576 209.858 47.2347 209.048 46.552C208.28 45.8693 207.597 44.8027 207 43.352L203.16 34.456L207.128 37.208H180.44L184.408 34.456L180.632 43.352C179.992 44.8453 179.309 45.9333 178.584 46.616C177.901 47.256 176.877 47.576 175.512 47.576ZM193.688 12.44L185.496 31.96L183.768 29.464H203.8L202.072 31.96L193.816 12.44H193.688ZM227.411 47.576C225.79 47.576 224.552 47.128 223.699 46.232C222.846 45.336 222.419 44.0773 222.419 42.456V6.936C222.419 5.272 222.846 4.01333 223.699 3.16C224.595 2.30666 225.854 1.88 227.475 1.88H243.027C248.062 1.88 251.944 3.096 254.675 5.528C257.406 7.96 258.771 11.352 258.771 15.704C258.771 18.52 258.152 20.952 256.915 23C255.678 25.048 253.886 26.6267 251.539 27.736C249.235 28.8453 246.398 29.4 243.027 29.4L243.539 28.312H246.163C247.955 28.312 249.512 28.76 250.835 29.656C252.2 30.5093 253.374 31.832 254.355 33.624L258.323 40.984C258.92 42.0507 259.198 43.096 259.155 44.12C259.112 45.144 258.728 45.976 258.003 46.616C257.278 47.256 256.211 47.576 254.803 47.576C253.395 47.576 252.243 47.2773 251.347 46.68C250.494 46.0827 249.726 45.1653 249.043 43.928L242.899 32.6C242.259 31.4053 241.47 30.5947 240.531 30.168C239.635 29.7413 238.526 29.528 237.203 29.528H232.339V42.456C232.339 44.0773 231.912 45.336 231.059 46.232C230.248 47.128 229.032 47.576 227.411 47.576ZM232.339 22.36H241.235C243.88 22.36 245.864 21.8267 247.187 20.76C248.552 19.6933 249.235 18.0933 249.235 15.96C249.235 13.8693 248.552 12.2907 247.187 11.224C245.864 10.1573 243.88 9.624 241.235 9.624H232.339V22.36Z" fill="#22A699"/>
</g>
<defs>
<filter id="filter0_d_47_3708" x="0.716064" y="0.304001" width="263.503" height="56.272" filterUnits="userSpaceOnUse" color-interpolation-filters="sRGB">
<feFlood flood-opacity="0" result="BackgroundImageFix"/>
<feColorMatrix in="SourceAlpha" type="matrix" values="0 0 0 0 0 0 0 0 0 0 0 0 0 0 0 0 0 0 127 0" result="hardAlpha"/>
<feOffset dy="4"/>
<feGaussianBlur stdDeviation="2.5"/>
<feComposite in2="hardAlpha" operator="out"/>
<feColorMatrix type="matrix" values="0 0 0 0 0 0 0 0 0 0 0 0 0 0 0 0 0 0 1 0"/>
<feBlend mode="normal" in2="BackgroundImageFix" result="effect1_dropShadow_47_3708"/>
<feBlend mode="normal" in="SourceGraphic" in2="effect1_dropShadow_47_3708" result="shape"/>
</filter>
</defs>
</svg>
