<svg xmlns="http://www.w3.org/2000/svg" xmlns:xlink="http://www.w3.org/1999/xlink" xml:space="preserve" style="shape-rendering:geometricPrecision;text-rendering:geometricPrecision;image-rendering:optimizeQuality;" viewBox="0 0 6.82666 8.533325000000001" x="0px" y="0px" fill-rule="evenodd" clip-rule="evenodd"><defs><style type="text/css">
   
    .fil1 {fill:white}
    .fil0 {fill:white;fill-rule:nonzero}
   
  </style></defs><g><g><path class="fil0" d="M1.75303 1.61909l0.494264 0 0.08 0 0 0.08 0 2.98296c0,0.100437 0.0411457,0.191803 0.107433,0.258091 0.0662874,0.0662874 0.157654,0.107433 0.258091,0.107433l1.88655 0 0.08 0 0 0.08 0 0.320232c0,0.144606 -0.0590984,0.276008 -0.154307,0.371217 -0.0952087,0.0952087 -0.22661,0.154307 -0.371217,0.154307l-2.38081 0c-0.144602,0 -0.276008,-0.0590984 -0.371213,-0.154307 -0.0952087,-0.0952087 -0.154307,-0.22661 -0.154307,-0.371217l0 -3.3032c0,-0.144606 0.0590984,-0.276008 0.154307,-0.371217 0.0952047,-0.0952087 0.22661,-0.154307 0.371213,-0.154307zm0.414264 0.16l-0.414264 0c-0.100433,0 -0.191803,0.0411457 -0.258087,0.107433 -0.0662874,0.0662874 -0.107433,0.157654 -0.107433,0.258091l0 3.3032c0,0.100437 0.0411457,0.191803 0.107433,0.258091 0.0662835,0.0662874 0.157654,0.107433 0.258087,0.107433l2.38081 0c0.100437,0 0.191803,-0.0411457 0.258091,-0.107433 0.0662874,-0.0662874 0.107433,-0.157654 0.107433,-0.258091l0 -0.240232 -1.80655 0c-0.144606,0 -0.276008,-0.0590984 -0.371217,-0.154307 -0.0952087,-0.0952087 -0.154307,-0.22661 -0.154307,-0.371217l0 -2.90296z"/><path class="fil0" d="M2.69283 0.853331l2.3808 0c0.144602,0 0.276008,0.0591024 0.371217,0.154311 0.0952087,0.0952087 0.154311,0.226614 0.154311,0.37122l0 3.30319c0,0.144602 -0.0591024,0.276008 -0.154307,0.371217 -0.0952087,0.0952047 -0.226614,0.154307 -0.37122,0.154307l-2.3808 0c-0.144606,0 -0.276012,-0.0591024 -0.37122,-0.154307 -0.0952087,-0.0952087 -0.154311,-0.226614 -0.154311,-0.371217l0 -3.30319c0,-0.144606 0.0591024,-0.276012 0.154311,-0.37122 0.0952087,-0.0952087 0.226614,-0.154311 0.37122,-0.154311zm2.3808 0.16l-2.3808 0c-0.100437,0 -0.191807,0.0411496 -0.258094,0.107437 -0.0662874,0.0662874 -0.107437,0.157657 -0.107437,0.258094l0 3.30319c0,0.100433 0.0411496,0.191803 0.107437,0.258091 0.0662874,0.0662835 0.157657,0.107433 0.258094,0.107433l2.3808 0c0.100437,0 0.191807,-0.0411496 0.258094,-0.107433 0.0662835,-0.0662874 0.107433,-0.157657 0.107433,-0.258091l0 -3.30319c0,-0.100437 -0.0411496,-0.191807 -0.107437,-0.258094 -0.0662874,-0.0662874 -0.157657,-0.107437 -0.258091,-0.107437z"/></g></g><rect fill="#fff" width="10" height="10"/><text x="0" y="21.82666" fill="#000000" font-size="10px" font-weight="bold" font-family="'Helvetica Neue', Helvetica, Arial-Unicode, Arial, Sans-serif">Created by IYIKON</text><text x="0" y="26.82666" fill="#fff" font-size="20px" font-weight="bold" font-family="'Helvetica Neue', Helvetica, Arial-Unicode, Arial, Sans-serif">from the Noun Project</text></svg>