<svg xmlns="http://www.w3.org/2000/svg" width="500" height="500" style="width:100%;height:100%;transform:translate3d(0,0,0);content-visibility:visible" viewBox="0 0 500 500"><defs><clipPath id="a"><path d="M0 0h500v500H0z"/></clipPath></defs><g clip-path="url(#a)"><path fill="none" stroke="#121331" stroke-linecap="round" stroke-linejoin="round" stroke-width="2.38" d="m-39-3.178 25.289 2.199M24.16-35.81 7.691-11.399m20.144 44.731L8.813 10.553m-19.856 14.679 5.53-12.635" style="display:block" transform="matrix(3.5 0 0 3.5 250 250)"/><g fill="#4BB3FD" style="display:block"><path d="M298.657 250.27c0 26.579-21.546 48.125-48.125 48.125s-48.125-21.546-48.125-48.125 21.546-48.125 48.125-48.125 48.125 21.546 48.125 48.125z"/><path d="M-8.942 0c0-23.121 16.307-42.425 38.045-47.059a48.311 48.311 0 0 0-10.081-1.066C-7.557-48.125-29.103-26.579-29.103 0s21.546 48.125 48.125 48.125c3.458 0 6.83-.373 10.081-1.066C7.365 42.425-8.942 23.121-8.942 0z" opacity=".5" style="mix-blend-mode:multiply" transform="translate(231.236 250.27)"/></g><path fill="none" stroke="#121331" stroke-linecap="round" stroke-linejoin="round" stroke-width="2.38" d="M13.75 0c0 7.594-6.156 13.75-13.75 13.75S-13.75 7.594-13.75 0-7.594-13.75 0-13.75 13.75-7.594 13.75 0z" style="display:block" transform="matrix(3.5 0 0 3.5 250 250)"/><path fill="#FFC738" d="M-39-3.178a5.5 5.5 0 1 1-11 0 5.5 5.5 0 1 1 11 0z" style="display:block" transform="matrix(3.5 0 0 3.5 250 250)"/><path fill="none" stroke="#121331" stroke-linecap="round" stroke-linejoin="round" stroke-width="2.38" d="M-39-3.178a5.5 5.5 0 1 1-11 0 5.5 5.5 0 1 1 11 0z" style="display:block" transform="matrix(3.5 0 0 3.5 250 250)"/><path fill="#FFC738" d="M36.258-42.242a7.758 7.758 0 1 1-15.517.001 7.758 7.758 0 0 1 15.517-.001z" style="display:block" transform="matrix(3.5 0 0 3.5 250 250)"/><path fill="none" stroke="#121331" stroke-linecap="round" stroke-linejoin="round" stroke-width="2.38" d="M36.258-42.242a7.758 7.758 0 1 1-15.517.001 7.758 7.758 0 0 1 15.517-.001z" style="display:block" transform="matrix(3.5 0 0 3.5 250 250)"/><path fill="#FFC738" d="M43.696 40.75a9.667 9.667 0 0 1-9.667 9.667 9.667 9.667 0 0 1-9.667-9.667 9.667 9.667 0 0 1 9.667-9.667 9.667 9.667 0 0 1 9.667 9.667z" style="display:block" transform="matrix(3.5 0 0 3.5 250 250)"/><path fill="none" stroke="#121331" stroke-linecap="round" stroke-linejoin="round" stroke-width="2.38" d="M43.696 40.75a9.667 9.667 0 0 1-9.667 9.667 9.667 9.667 0 0 1-9.667-9.667 9.667 9.667 0 0 1 9.667-9.667 9.667 9.667 0 0 1 9.667 9.667z" style="display:block" transform="matrix(3.5 0 0 3.5 250 250)"/><path fill="#FFC738" d="M-7 31.417a6.75 6.75 0 1 1-13.5 0 6.75 6.75 0 0 1 13.5 0z" style="display:block" transform="matrix(3.5 0 0 3.5 250 250)"/><path fill="none" stroke="#121331" stroke-linecap="round" stroke-linejoin="round" stroke-width="2.38" d="M-7 31.417a6.75 6.75 0 1 1-13.5 0 6.75 6.75 0 0 1 13.5 0z" style="display:block" transform="matrix(3.5 0 0 3.5 250 250)"/><g class="com" style="display:none"><path/><path/><path/><path/><path/><path/><path/><path/><path/><path/><path/><path/></g></g></svg>